<svg xmlns="http://www.w3.org/2000/svg" width="11.833" height="13.948" viewBox="0 0 11.833 13.948">
  <g id="noun_support_818016" transform="translate(-1.736 -1)">
    <path id="Path_3949" data-name="Path 3949" d="M13.888,14.907a1.03,1.03,0,0,1-1.281-.712l-.269-.965H10.875a1.423,1.423,0,0,1-1.423-1.423V10.363l-.377-.125A.968.968,0,0,1,8.5,8.925l.8-1.8a1.8,1.8,0,0,0,.157-.734,5.408,5.408,0,0,1,3.653-5.11q.08.546.142,1.116a4.311,4.311,0,0,0-2.693,3.985,2.882,2.882,0,0,1-.25,1.18L9.556,9.243l.457.154a.783.783,0,0,1,.538.744v1.675a.324.324,0,0,0,.324.324h2.287l.485,1.708,4.9-1.4L17.736,9.6l.218-.226a4.295,4.295,0,0,0-.777-6.6q-.051-.666-.128-1.309a5.391,5.391,0,0,1,1.91,8.419l.659,2.311a1.032,1.032,0,0,1-.712,1.281ZM13.024,9.59a.8.8,0,1,0,.384.754A4.147,4.147,0,0,0,14.935,8.7a1.81,1.81,0,0,0,1.352-3.273A33.107,33.107,0,0,0,16,1.125a5.318,5.318,0,0,0-.77-.111Q15.042,1,14.85,1a5.5,5.5,0,0,0-.771.054A30.455,30.455,0,0,1,14.4,5.335a1.809,1.809,0,0,0-.238,3.016A3.2,3.2,0,0,1,13.024,9.59Z" transform="translate(-6.676 0)" fill="#102f54"/>
  </g>
</svg>
