<?xml version="1.0" encoding="utf-8"?>
<!-- Generator: Adobe Illustrator 25.4.1, SVG Export Plug-In . SVG Version: 6.00 Build 0)  -->
<svg version="1.1" id="Layer_1" xmlns="http://www.w3.org/2000/svg" xmlns:xlink="http://www.w3.org/1999/xlink" x="0px" y="0px"
	 viewBox="0 0 1306 151" style="enable-background:new 0 0 1306 151;" xml:space="preserve">
<style type="text/css">
	.st0{fill:#FFFFFF;}
	.st1{fill:#F25022;}
	.st2{fill:#80BA01;}
	.st3{fill:#02A4EF;}
	.st4{fill:#FFB902;}
</style>
<g>
	<g>
		<path class="st0" d="M57.6,21.9h51.1V73H57.6V21.9z M114.9,73H166V21.9h-51.1V73z M57.6,130.3h51.1V79.1H57.6V130.3z M114.9,130.3
			H166V79.1h-51.1V130.3z"/>
		<g>
			<g>
				<path class="st0" d="M283.8,42.2l-17.8,65h-12.2l-12.4-45.5c-0.5-2-0.9-4.1-1-6.4h-0.2c-0.2,2.2-0.5,4.3-1.1,6.3l-12.4,45.5
					h-12.5l-18.2-64.9H208l11.8,47.6c0.5,2,0.8,4.1,0.9,6.3h0.3c0.1-1.6,0.6-3.6,1.3-6.3l13.3-47.6h11.1l12.3,47.9
					c0.4,1.7,0.8,3.6,1,5.8h0.2c0.1-1.5,0.5-3.5,1.1-6l11.6-47.8L283.8,42.2L283.8,42.2z"/>
				<path class="st0" d="M293.7,54.2c-1.7,0-3.2-0.6-4.4-1.7c-1.2-1.1-1.9-2.6-1.9-4.3c0-1.7,0.6-3.2,1.9-4.3
					c1.2-1.2,2.7-1.7,4.4-1.7c1.8,0,3.3,0.6,4.6,1.7c1.3,1.2,1.9,2.6,1.9,4.3c0,1.7-0.6,3.1-1.9,4.2C297,53.6,295.5,54.2,293.7,54.2
					z M298.9,107.2h-10.5V60.7h10.5V107.2z"/>
				<path class="st0" d="M350.7,107.2h-10.5V81c0-8.7-3.1-13-9.2-13c-3.2,0-5.9,1.2-8,3.6c-2.1,2.4-3.2,5.5-3.2,9.1v26.5h-10.6V60.7
					h10.6v7.7h0.2c3.5-5.9,8.5-8.8,15.1-8.8c5.1,0,8.9,1.7,11.6,4.9c2.7,3.3,4,8,4,14.2L350.7,107.2L350.7,107.2z"/>
				<path class="st0" d="M402.4,107.2h-10.5v-7.9h-0.2c-3.4,6-8.6,9-15.7,9c-5.7,0-10.3-2.1-13.7-6.3c-3.5-4.2-5.2-9.8-5.2-17
					c0-7.7,1.9-13.8,5.7-18.5c3.8-4.6,8.9-7,15.2-7c6.3,0,10.8,2.5,13.7,7.5h0.2V38.4h10.5V107.2z M392.1,85.9v-6.1
					c0-3.3-1.1-6.1-3.2-8.4c-2.2-2.3-4.9-3.5-8.2-3.5c-4,0-7,1.5-9.3,4.4c-2.3,3-3.4,7-3.4,12.2c0,4.7,1.1,8.5,3.3,11.2
					c2.2,2.8,5.1,4.1,8.7,4.1c3.6,0,6.5-1.3,8.8-4C390.9,93.3,392.1,89.9,392.1,85.9z"/>
				<path class="st0" d="M433.5,108.2c-7.2,0-12.9-2.2-17.2-6.5c-4.3-4.4-6.4-10.1-6.4-17.3c0-7.8,2.3-13.9,6.7-18.3
					c4.5-4.4,10.5-6.6,18-6.6c7.3,0,12.9,2.2,17,6.4s6.1,10.2,6.1,17.7c0,7.4-2.2,13.3-6.6,17.8C446.8,106,440.9,108.2,433.5,108.2z
					 M434,68c-4.1,0-7.4,1.5-9.8,4.3c-2.4,2.9-3.6,6.8-3.6,11.9c0,4.9,1.2,8.7,3.6,11.5c2.4,2.8,5.7,4.2,9.7,4.2
					c4.2,0,7.3-1.4,9.6-4.1c2.2-2.8,3.4-6.7,3.4-11.8s-1.1-9.1-3.4-11.8C441.3,69.4,438.2,68,434,68z"/>
				<path class="st0" d="M527.5,60.7l-13.7,46.4h-11l-8.5-31.5c-0.4-1.2-0.6-2.6-0.7-4.1h-0.2c0,1.1-0.4,2.4-0.8,4l-9.2,31.5h-10.8
					l-13.6-46.4H470l8.4,33.5c0.3,1,0.5,2.4,0.6,4h0.3c0.1-1.3,0.4-2.7,0.8-4.1l9.4-33.4h9.9l8.4,33.6c0.3,1.1,0.5,2.4,0.6,4h0.3
					c0-1.1,0.3-2.5,0.7-4l8.3-33.6L527.5,60.7L527.5,60.7z"/>
				<path class="st0" d="M529.1,105.7V96c4,3,8.3,4.5,13,4.5c6.4,0,9.5-1.9,9.5-5.6c0-1.1-0.3-2-0.8-2.7c-0.6-0.8-1.3-1.4-2.2-2
					c-0.9-0.6-2-1.1-3.3-1.6c-1.3-0.5-2.7-1-4.2-1.6c-1.9-0.8-3.6-1.6-5.2-2.4c-1.6-0.9-2.8-1.8-3.8-2.9c-1-1.1-1.8-2.3-2.3-3.7
					c-0.5-1.4-0.8-3-0.8-4.8c0-2.3,0.6-4.2,1.6-5.9s2.5-3.2,4.3-4.3c1.8-1.2,3.8-2.1,6.1-2.7c2.3-0.6,4.6-0.9,7-0.9
					c4.3,0,8.1,0.7,11.5,2v9.2c-3.3-2.3-7-3.4-11.3-3.4c-1.4,0-2.6,0.2-3.6,0.4c-1.1,0.3-2,0.7-2.8,1.2c-0.8,0.5-1.4,1.1-1.8,1.8
					s-0.7,1.5-0.7,2.3c0,1,0.2,1.9,0.7,2.6c0.4,0.7,1.1,1.3,1.9,1.9c0.9,0.6,1.9,1,3,1.5c1.2,0.5,2.5,0.9,4,1.5
					c2,0.8,3.8,1.7,5.4,2.5c1.6,0.9,3,1.8,4.1,2.9c1.1,1.1,2,2.3,2.6,3.7s0.9,3.1,0.9,5c0,2.4-0.6,4.4-1.7,6.2
					c-1.1,1.8-2.6,3.2-4.4,4.4c-1.8,1.2-3.9,2-6.3,2.6c-2.4,0.6-4.9,0.9-7.5,0.9C537.2,108.2,532.8,107.4,529.1,105.7z"/>
				<path class="st0" d="M602.5,40.7v66.4H592V53.6c-1.9,1.4-4,2.5-6.2,3.5c-2.2,1-4.7,1.8-7.5,2.5v-9c1.8-0.6,3.5-1.2,5.1-1.8
					c1.7-0.7,3.3-1.4,4.8-2.2c1.6-0.8,3.2-1.7,4.8-2.7c1.6-1,3.3-2.1,5-3.3L602.5,40.7L602.5,40.7z"/>
				<path class="st0" d="M636.6,40.7v66.4h-10.5V53.6c-1.9,1.4-4,2.5-6.2,3.5c-2.2,1-4.7,1.8-7.5,2.5v-9c1.8-0.6,3.5-1.2,5.1-1.8
					c1.7-0.7,3.3-1.4,4.8-2.2c1.6-0.8,3.2-1.7,4.8-2.7c1.6-1,3.3-2.1,5-3.3L636.6,40.7L636.6,40.7z"/>
			</g>
		</g>
	</g>
	<g>
		<path class="st1" d="M743.6,20.7h51.3c0,17.1,0,34.2,0,51.3c-17.1,0-34.2,0-51.3,0V20.7L743.6,20.7z"/>
		<path class="st2" d="M800.1,20.7h51.3c0,17.1,0,34.2,0,51.3c-17.1,0-34.2,0-51.3,0C800.1,54.9,800.1,37.8,800.1,20.7L800.1,20.7z"
			/>
		<path class="st0" d="M1206,40.3c4.7-3.1,10.8-3.4,16.2-1.9c0,3.2,0,6.3,0,9.5c-2.5-1.1-5.5-1.8-8.2-0.7c-2.1,0.8-3.4,3-3.7,5.2
			c-0.4,2.8-0.1,5.5-0.2,8.3c5.4,0,10.8,0,16.2,0c0-3.5,0-7,0-10.5c3.7-1,7.3-2.2,11-3.3c0,4.6,0,9.3,0,13.9c3.7-0.1,7.3,0,11,0v9
			c-3.7-0.2-7.3,0-11-0.1c0,5.2,0,10.4,0,15.5c0.1,2.9-0.2,5.8,0.2,8.6c0.2,1.7,0.8,3.6,2.4,4.4c2.6,1.5,6,0.8,8.4-0.8v9.1
			c-3.2,1.4-6.7,1.8-10.1,1.6c-3.3-0.2-6.6-1.4-8.7-4c-2.5-2.9-3.1-6.9-3.1-10.6c0-7.9,0-15.9,0-23.8c-5.4,0-10.8,0-16.2,0
			c0,12.5,0,24.9,0,37.4c-3.7,0-7.4,0-11.1,0c0-12.5,0-24.9,0-37.4c-2.6,0-5.1,0-7.7,0c0-3,0-5.9,0-8.9c2.6-0.1,5.1,0,7.7,0
			c0.2-3.9-0.4-8,0.8-11.8C1200.8,45.4,1203,42.2,1206,40.3L1206,40.3z"/>
		<path class="st0" d="M968.6,40.9c2.2-0.3,4.7,0.4,6.1,2.2c1.7,1.9,2.1,5,0.8,7.2c-1.4,2.5-4.6,3.7-7.4,3.1
			c-2.9-0.5-5.3-3.2-5.2-6.2C962.8,44.1,965.5,41.3,968.6,40.9L968.6,40.9z"/>
		<path class="st0" d="M883.6,42.3c5.4,0,10.8,0,16.1,0c5,12.7,10.1,25.5,15.1,38.2c1.3,3.2,2.5,6.4,3.8,9.6
			c6.5-15.9,13-31.8,19.4-47.8c5.2-0.1,10.3,0,15.5,0c0,21.6,0,43.1,0,64.7c-3.7,0-7.5,0-11.2,0c0-15.9,0-31.8,0-47.7
			c0-0.7,0-1.4-0.1-2.1c-0.2,0.3-0.4,0.7-0.6,1c-6.4,16.3-12.9,32.5-19.3,48.8c-2.7,0.1-5.3,0-8,0c-6.6-16.3-13.1-32.6-19.7-48.9
			c-0.2-0.3-0.4-0.7-0.6-1c-0.1,7,0,13.9-0.1,20.9c0,9.7,0,19.3,0,29c-3.5,0-7,0-10.6,0C883.5,85.4,883.5,63.9,883.6,42.3
			L883.6,42.3z"/>
		<path class="st0" d="M999.1,60.6c5.4-1.5,11.1-1.5,16.5,0c1.1,0.3,2.2,0.7,3.2,1.3c-0.1,3.5,0,7.1,0,10.6
			c-3.6-2.7-8.1-4.5-12.7-3.9c-3.6,0.3-7.1,2.2-9.2,5.1c-2.8,3.6-3.4,8.4-2.9,12.8c0.4,3.5,1.8,6.9,4.5,9.2
			c2.8,2.5,6.7,3.4,10.4,3.1c3.6-0.4,7-1.9,10-4.1c0,3.3,0,6.7,0,10c-4.5,2.7-10,3.4-15.2,3.1c-5.3-0.3-10.6-2.3-14.4-6
			c-4.2-4-6.4-9.8-6.7-15.5c-0.3-6,0.9-12.2,4.4-17.2C989.7,65,994.2,62,999.1,60.6L999.1,60.6z"/>
		<path class="st0" d="M1120.2,59.9c5.1-0.9,10.5-0.2,15.4,1.6c0,3.4,0,6.8,0,10.2c-3.4-2.3-7.5-3.6-11.6-3.4
			c-2.1,0.1-4.4,1-5.3,2.9c-0.8,1.9-0.2,4.5,1.6,5.7c3.1,2.1,6.9,3,10.2,4.9c2.6,1.4,5.1,3.3,6.4,6c2.4,5.1,1.4,11.8-2.9,15.6
			c-4.1,3.8-10,4.9-15.4,4.7c-3.9-0.2-7.7-1-11.3-2.6c0-3.6,0-7.1,0-10.7c3,2.2,6.4,3.7,10.1,4.3c2.5,0.4,5.3,0.4,7.7-0.7
			c2.3-1.1,2.7-4.3,1.3-6.3c-1.3-1.5-3.1-2.4-4.8-3.2c-3.3-1.5-6.7-2.7-9.6-4.9c-2-1.6-3.5-3.8-4.1-6.3c-0.9-3.7-0.6-7.8,1.5-11.1
			C1111.6,62.9,1115.9,60.7,1120.2,59.9L1120.2,59.9z"/>
		<path class="st0" d="M1043.5,61.3c3.1-1.8,7-2,10.3-0.9c0,3.7,0,7.4,0,11.1c-2.2-1.4-4.9-2-7.5-1.8c-3.1,0.4-5.6,2.8-6.9,5.5
			c-1.4,2.9-1.7,6.3-1.6,9.5c0,7.4,0,14.8,0,22.2c-3.6,0-7.3,0-10.9,0c0-15.4,0-30.9,0-46.3c3.7,0,7.3,0,11,0c0,2.7,0,5.3,0,8
			C1039,65.7,1040.7,62.9,1043.5,61.3L1043.5,61.3z"/>
		<path class="st0" d="M963.9,60.6c3.7,0,7.4-0.1,11,0c0,15.4,0,30.9,0,46.3c-3.7,0-7.3,0-11,0C963.9,91.5,963.9,76.1,963.9,60.6
			L963.9,60.6z"/>
		<path class="st0" d="M1099.8,71.5c-1.9-4.3-5.4-7.9-9.7-9.8c-4.9-2.2-10.6-2.6-15.9-1.9c-5.6,0.7-11,3.3-14.6,7.8
			c-3.2,4-4.8,9.1-5.1,14.2c-0.4,6,0.6,12.3,4.1,17.3c3,4.3,7.7,7.3,12.8,8.4c4.3,0.9,8.7,0.9,13,0c5-1,9.6-3.8,12.7-7.9
			c3-3.8,4.5-8.7,4.9-13.5C1102.3,81.1,1101.8,76,1099.8,71.5z M1089.1,92.7c-1.1,2.4-3,4.4-5.4,5.4c-2.9,1.1-6.1,1.2-9,0.4
			c-3-0.8-5.6-3-7-5.7c-1.8-3.6-2.1-7.7-1.7-11.6c0.3-3.6,1.6-7.2,4.3-9.7c2-1.8,4.6-2.7,7.3-2.9c3.3-0.2,6.9,0.7,9.3,3.1
			c2.6,2.5,3.6,6.2,3.8,9.7C1090.8,85.2,1090.7,89.2,1089.1,92.7z"/>
		<path class="st0" d="M1188.6,72.8c-1.7-4.6-5.1-8.6-9.5-10.8c-5.1-2.6-10.9-2.9-16.5-2.2c-4.5,0.6-8.8,2.3-12.3,5.3
			c-4.2,3.6-6.6,8.8-7.3,14.2c-0.7,5.4-0.5,11.1,1.7,16.1c2.1,4.9,6.3,9,11.3,10.9c4.9,1.9,10.4,2.2,15.6,1.3
			c5.3-0.9,10.3-3.7,13.6-8c3.5-4.4,5-10.2,5-15.8C1190.4,80.1,1190,76.3,1188.6,72.8z M1178.6,88.5c-0.4,2.4-1.3,4.9-2.9,6.8
			c-1.6,1.9-4,3.1-6.5,3.5c-2.7,0.4-5.5,0.2-7.9-0.9c-2.7-1.1-4.8-3.5-5.8-6.1c-1.3-3.2-1.6-6.7-1.3-10.1c0.3-3.3,1.2-6.7,3.4-9.2
			c2-2.4,5-3.7,8.1-3.9c3.1-0.2,6.5,0.5,8.9,2.6c2.2,1.8,3.4,4.6,4,7.4C1179.2,81.9,1179.2,85.2,1178.6,88.5z"/>
		<path class="st3" d="M743.6,77.3c17.1,0,34.2,0,51.3,0c0,17.1,0,34.2,0,51.3h-51.3V77.3L743.6,77.3z"/>
		<path class="st4" d="M800.1,77.3c17.1,0,34.2,0,51.3,0c0,17.1,0,34.2,0,51.3h-51.3C800.1,111.5,800.1,94.4,800.1,77.3L800.1,77.3z
			"/>
	</g>
</g>
</svg>
