<svg xmlns="http://www.w3.org/2000/svg" xmlns:xlink="http://www.w3.org/1999/xlink" width="808.45" height="255.64" viewBox="0 0 808.45 255.64">
  <defs>
    <filter id="Ellipse_460" x="29.92" y="0" width="78.04" height="78.04" filterUnits="userSpaceOnUse">
      <feOffset dy="3" input="SourceAlpha"/>
      <feGaussianBlur stdDeviation="3" result="blur"/>
      <feFlood flood-color="#09b793" flood-opacity="0.255"/>
      <feComposite operator="in" in2="blur"/>
      <feComposite in="SourceGraphic"/>
    </filter>
    <filter id="Ellipse_461" x="0" y="88.8" width="78.04" height="78.04" filterUnits="userSpaceOnUse">
      <feOffset dy="3" input="SourceAlpha"/>
      <feGaussianBlur stdDeviation="3" result="blur-2"/>
      <feFlood flood-color="#09b793" flood-opacity="0.255"/>
      <feComposite operator="in" in2="blur-2"/>
      <feComposite in="SourceGraphic"/>
    </filter>
    <filter id="Ellipse_467" x="168.22" y="88.77" width="78.04" height="78.04" filterUnits="userSpaceOnUse">
      <feOffset dy="3" input="SourceAlpha"/>
      <feGaussianBlur stdDeviation="3" result="blur-3"/>
      <feFlood flood-color="#0f3e67" flood-opacity="0.282"/>
      <feComposite operator="in" in2="blur-3"/>
      <feComposite in="SourceGraphic"/>
    </filter>
    <filter id="Ellipse_468" x="304.82" y="88.77" width="78.04" height="78.04" filterUnits="userSpaceOnUse">
      <feOffset dy="3" input="SourceAlpha"/>
      <feGaussianBlur stdDeviation="3" result="blur-4"/>
      <feFlood flood-color="#0f3e67" flood-opacity="0.282"/>
      <feComposite operator="in" in2="blur-4"/>
      <feComposite in="SourceGraphic"/>
    </filter>
    <filter id="Ellipse_469" x="441.42" y="88.77" width="78.04" height="78.04" filterUnits="userSpaceOnUse">
      <feOffset dy="3" input="SourceAlpha"/>
      <feGaussianBlur stdDeviation="3" result="blur-5"/>
      <feFlood flood-color="#0f3e67" flood-opacity="0.282"/>
      <feComposite operator="in" in2="blur-5"/>
      <feComposite in="SourceGraphic"/>
    </filter>
    <filter id="Ellipse_470" x="578.03" y="88.77" width="78.04" height="78.04" filterUnits="userSpaceOnUse">
      <feOffset dy="3" input="SourceAlpha"/>
      <feGaussianBlur stdDeviation="3" result="blur-6"/>
      <feFlood flood-color="#0f3e67" flood-opacity="0.282"/>
      <feComposite operator="in" in2="blur-6"/>
      <feComposite in="SourceGraphic"/>
    </filter>
    <filter id="Ellipse_471" x="714.63" y="88.77" width="78.04" height="78.04" filterUnits="userSpaceOnUse">
      <feOffset dy="3" input="SourceAlpha"/>
      <feGaussianBlur stdDeviation="3" result="blur-7"/>
      <feFlood flood-color="#0f3e67" flood-opacity="0.282"/>
      <feComposite operator="in" in2="blur-7"/>
      <feComposite in="SourceGraphic"/>
    </filter>
    <filter id="Ellipse_462" x="29.92" y="177.6" width="78.04" height="78.04" filterUnits="userSpaceOnUse">
      <feOffset dy="3" input="SourceAlpha"/>
      <feGaussianBlur stdDeviation="3" result="blur-8"/>
      <feFlood flood-color="#09b793" flood-opacity="0.255"/>
      <feComposite operator="in" in2="blur-8"/>
      <feComposite in="SourceGraphic"/>
    </filter>
    <linearGradient id="linear-gradient" x1="0.5" x2="0.5" y2="1" gradientUnits="objectBoundingBox">
      <stop offset="0" stop-color="#78f0d8"/>
      <stop offset="1" stop-color="#379f89"/>
    </linearGradient>
    <linearGradient id="linear-gradient-4" x1="-0.027" y1="0.5" x2="1.026" y2="0.5" gradientUnits="objectBoundingBox">
      <stop offset="0" stop-color="#dafcf5"/>
      <stop offset="1" stop-color="#c7e6fa"/>
    </linearGradient>
  </defs>
  <g id="Group_2764" data-name="Group 2764" transform="translate(-244.97 -2419.14)">
    <g transform="matrix(1, 0, 0, 1, 244.97, 2419.14)" filter="url(#Ellipse_460)">
      <circle id="Ellipse_460-2" data-name="Ellipse 460" cx="30.02" cy="30.02" r="30.02" transform="translate(38.92 6)" fill="#dafcf5"/>
    </g>
    <g transform="matrix(1, 0, 0, 1, 244.97, 2419.14)" filter="url(#Ellipse_461)">
      <circle id="Ellipse_461-2" data-name="Ellipse 461" cx="30.02" cy="30.02" r="30.02" transform="translate(9 94.8)" fill="#dafcf5"/>
    </g>
    <g transform="matrix(1, 0, 0, 1, 244.97, 2419.14)" filter="url(#Ellipse_467)">
      <circle id="Ellipse_467-2" data-name="Ellipse 467" cx="30.02" cy="30.02" r="30.02" transform="translate(177.22 94.77)" fill="#7cb7ea"/>
    </g>
    <g transform="matrix(1, 0, 0, 1, 244.97, 2419.14)" filter="url(#Ellipse_468)">
      <circle id="Ellipse_468-2" data-name="Ellipse 468" cx="30.02" cy="30.02" r="30.02" transform="translate(313.82 94.77)" fill="#7cb7ea"/>
    </g>
    <g transform="matrix(1, 0, 0, 1, 244.97, 2419.14)" filter="url(#Ellipse_469)">
      <circle id="Ellipse_469-2" data-name="Ellipse 469" cx="30.02" cy="30.02" r="30.02" transform="translate(450.42 94.77)" fill="#7cb7ea"/>
    </g>
    <g transform="matrix(1, 0, 0, 1, 244.97, 2419.14)" filter="url(#Ellipse_470)">
      <circle id="Ellipse_470-2" data-name="Ellipse 470" cx="30.02" cy="30.02" r="30.02" transform="translate(587.03 94.77)" fill="#7cb7ea"/>
    </g>
    <g transform="matrix(1, 0, 0, 1, 244.97, 2419.14)" filter="url(#Ellipse_471)">
      <circle id="Ellipse_471-2" data-name="Ellipse 471" cx="30.02" cy="30.02" r="30.02" transform="translate(723.63 94.77)" fill="#7cb7ea"/>
    </g>
    <g transform="matrix(1, 0, 0, 1, 244.97, 2419.14)" filter="url(#Ellipse_462)">
      <circle id="Ellipse_462-2" data-name="Ellipse 462" cx="30.02" cy="30.02" r="30.02" transform="translate(38.92 183.6)" fill="#dafcf5"/>
    </g>
    <g id="noun_User_2229485" transform="translate(299.943 2619.144)">
      <g id="Group_2633" data-name="Group 2633">
        <path id="Path_1941" data-name="Path 1941" d="M22.164,28a6.672,6.672,0,1,1-4.727,1.954A6.681,6.681,0,0,1,22.164,28ZM15.216,42.877H29.023c2.672,0,3.652,2.4,4.81,4.81l2.4,4.989H8l2.4-4.989C11.563,45.282,12.632,42.877,15.216,42.877Z" transform="translate(-8 -28)" fill-rule="evenodd" fill="url(#linear-gradient)"/>
      </g>
    </g>
    <g id="noun_User_2229485-2" data-name="noun_User_2229485" transform="translate(270.02 2530.372)">
      <g id="Group_2633-2" data-name="Group 2633">
        <path id="Path_1941-2" data-name="Path 1941" d="M22.164,28a6.672,6.672,0,1,1-4.727,1.954A6.681,6.681,0,0,1,22.164,28ZM15.216,42.877H29.023c2.672,0,3.652,2.4,4.81,4.81l2.4,4.989H8l2.4-4.989C11.563,45.282,12.632,42.877,15.216,42.877Z" transform="translate(-8 -28)" fill-rule="evenodd" fill="url(#linear-gradient)"/>
      </g>
    </g>
    <g id="noun_User_2229485-3" data-name="noun_User_2229485" transform="translate(299.943 2441.101)">
      <g id="Group_2633-3" data-name="Group 2633">
        <path id="Path_1941-3" data-name="Path 1941" d="M22.164,28a6.672,6.672,0,1,1-4.727,1.954A6.681,6.681,0,0,1,22.164,28ZM15.216,42.877H29.023c2.672,0,3.652,2.4,4.81,4.81l2.4,4.989H8l2.4-4.989C11.563,45.282,12.632,42.877,15.216,42.877Z" transform="translate(-8 -28)" fill-rule="evenodd" fill="url(#linear-gradient)"/>
      </g>
    </g>
    <rect id="Rectangle_3429" data-name="Rectangle 3429" width="70.32" height="1.995" transform="translate(333.766 2542.842)" fill="url(#linear-gradient-4)"/>
    <rect id="Rectangle_3464" data-name="Rectangle 3464" width="41.893" height="1.995" transform="translate(499.444 2542.842)" fill="#a7d6ff"/>
    <rect id="Rectangle_3465" data-name="Rectangle 3465" width="41.893" height="1.995" transform="translate(636.048 2542.842)" fill="#a7d6ff"/>
    <rect id="Rectangle_3466" data-name="Rectangle 3466" width="41.893" height="1.995" transform="translate(772.651 2542.842)" fill="#a7d6ff"/>
    <rect id="Rectangle_3467" data-name="Rectangle 3467" width="41.893" height="1.995" transform="translate(909.255 2542.842)" fill="#a7d6ff"/>
    <rect id="Rectangle_3430" data-name="Rectangle 3430" width="70.32" height="1.995" transform="matrix(0.857, 0.515, -0.515, 0.857, 352.269, 2476.001)" fill="url(#linear-gradient-4)"/>
    <rect id="Rectangle_3431" data-name="Rectangle 3431" width="70.32" height="1.995" transform="matrix(0.857, -0.515, 0.515, 0.857, 351.241, 2609.968)" fill="url(#linear-gradient-4)"/>
    <rect id="Rectangle_3473" data-name="Rectangle 3473" width="21.016" height="25.057" rx="2" transform="translate(441.91 2530.223)" fill="#f7fbff"/>
    <g id="noun_form_25603" transform="translate(459.417 2540.16)">
      <g id="Group_2673" data-name="Group 2673">
        <path id="Path_1967" data-name="Path 1967" d="M87.52,26.2l-.376.655-.162.283,1.394.8.162-.282L88.915,27Z" transform="translate(-81.63 -26.201)" fill="#c8e0f5"/>
        <path id="Path_1968" data-name="Path 1968" d="M60,42.079v1.669l1.433-.868,4.935-8.54-1.394-.8Z" transform="translate(-60 -32.083)" fill="#c8e0f5"/>
      </g>
    </g>
    <rect id="Rectangle_3474" data-name="Rectangle 3474" width="14.549" height="1.617" transform="translate(445.143 2534.265)" fill="#9dcaf2"/>
    <rect id="Rectangle_3477" data-name="Rectangle 3477" width="10.445" height="1.617" transform="translate(445.143 2542.348)" fill="#9dcaf2"/>
    <rect id="Rectangle_3475" data-name="Rectangle 3475" width="14.549" height="1.617" transform="translate(445.143 2538.306)" fill="#9dcaf2"/>
    <g id="Group_2581" data-name="Group 2581" transform="translate(570.862 2525.989)">
      <rect id="Rectangle_3336" data-name="Rectangle 3336" width="24.642" height="20.818" rx="2" transform="translate(28.041 5.232) rotate(90)" fill="#f7fbff"/>
      <rect id="Rectangle_3337" data-name="Rectangle 3337" width="5.098" height="4.249" transform="translate(23.792 21.376)" fill="#7cb7ea"/>
      <rect id="Rectangle_3342" data-name="Rectangle 3342" width="4.249" height="5.523" transform="translate(13.596 25.625)" fill="#7cb7ea"/>
      <rect id="Rectangle_3339" data-name="Rectangle 3339" width="4.673" height="4.249" transform="translate(6.798 17.128)" fill="#7cb7ea"/>
      <rect id="Rectangle_3341" data-name="Rectangle 3341" width="4.249" height="4.249" transform="translate(0 15.003)" fill="#9dcaf2"/>
      <rect id="Rectangle_3340" data-name="Rectangle 3340" width="4.673" height="4.249" transform="translate(23.792 12.879)" fill="#7cb7ea"/>
      <rect id="Rectangle_3344" data-name="Rectangle 3344" width="4.249" height="4.249" transform="translate(31.015 15.003)" fill="#9dcaf2"/>
      <rect id="Rectangle_3345" data-name="Rectangle 3345" width="4.249" height="4.249" transform="translate(31.015 23.501)" fill="#9dcaf2"/>
      <rect id="Rectangle_3343" data-name="Rectangle 3343" width="8.072" height="6.798" transform="translate(27.616) rotate(45)" fill="#7cb7ea"/>
    </g>
    <g id="noun_payment_1749772" transform="translate(708.651 2532.648)">
      <g id="Group_2674" data-name="Group 2674">
        <path id="Path_1969" data-name="Path 1969" d="M6.1,19.455h32a1.1,1.1,0,0,1,1.1,1.1V23.97H5V20.556a1.1,1.1,0,0,1,1.1-1.1ZM27.582,33.1h8.083v6.287H27.582ZM39.2,27.863V41.571a1.1,1.1,0,0,1-1.1,1.1H6.1a1.1,1.1,0,0,1-1.1-1.1V27.863Z" transform="translate(-5.001 -19.455)" fill="#f7fbff" fill-rule="evenodd"/>
      </g>
    </g>
    <g id="noun_payment_1749772-2" data-name="noun_payment_1749772" transform="translate(708.651 2532.648)">
      <g id="Group_2674-2" data-name="Group 2674">
        <path id="Path_1969-2" data-name="Path 1969" d="M6.1,19.455h32a1.1,1.1,0,0,1,1.1,1.1V23.97H5V20.556a1.1,1.1,0,0,1,1.1-1.1Z" transform="translate(-5.001 -19.455)" fill="#9dcaf2" fill-rule="evenodd"/>
      </g>
    </g>
    <rect id="Rectangle_3478" data-name="Rectangle 3478" width="7.275" height="24.249" transform="translate(847.679 2532.648)" fill="#9dcaf2"/>
    <rect id="Rectangle_3483" data-name="Rectangle 3483" width="7.275" height="4.85" transform="translate(847.679 2552.048)" fill="#f7fbff"/>
    <rect id="Rectangle_3479" data-name="Rectangle 3479" width="7.275" height="24.249" transform="translate(858.187 2532.648)" fill="#9dcaf2"/>
    <rect id="Rectangle_3482" data-name="Rectangle 3482" width="7.275" height="12.933" transform="translate(858.187 2543.964)" fill="#f7fbff"/>
    <rect id="Rectangle_3480" data-name="Rectangle 3480" width="7.275" height="24.249" transform="translate(868.695 2532.648)" fill="#9dcaf2"/>
    <rect id="Rectangle_3481" data-name="Rectangle 3481" width="7.275" height="19.399" transform="translate(868.695 2537.498)" fill="#f7fbff"/>
    <g id="Group_2643" data-name="Group 2643" transform="translate(1012.573 2541.96) rotate(180)">
      <path id="Path_1962" data-name="Path 1962" d="M0,0,8.341,8.341H0Z" transform="translate(0 4.203)" fill="#c8e0f5"/>
      <rect id="Rectangle_3447" data-name="Rectangle 3447" width="11.121" height="5.56" rx="2" transform="translate(0.748 7.864) rotate(-45)" fill="#c8e0f5"/>
    </g>
    <g id="Group_2644" data-name="Group 2644" transform="translate(1000.029 2558.024) rotate(-90)">
      <path id="Path_1962-2" data-name="Path 1962" d="M0,0,8.341,8.341H0Z" transform="translate(0 4.203)" fill="#9dcaf2"/>
      <rect id="Rectangle_3447-2" data-name="Rectangle 3447" width="11.121" height="5.561" rx="2" transform="translate(0.748 7.864) rotate(-45)" fill="#9dcaf2"/>
    </g>
    <g id="Group_2645" data-name="Group 2645" transform="translate(983.965 2545.479)">
      <path id="Path_1962-3" data-name="Path 1962" d="M0,0,8.341,8.341H0Z" transform="translate(0 4.203)" fill="#c8e0f5"/>
      <rect id="Rectangle_3447-3" data-name="Rectangle 3447" width="11.121" height="5.56" rx="2" transform="translate(0.748 7.864) rotate(-45)" fill="#c8e0f5"/>
    </g>
    <g id="Group_2646" data-name="Group 2646" transform="translate(996.509 2529.416) rotate(90)">
      <path id="Path_1962-4" data-name="Path 1962" d="M0,0,8.341,8.341H0Z" transform="translate(0 4.203)" fill="#9dcaf2"/>
      <rect id="Rectangle_3447-4" data-name="Rectangle 3447" width="11.121" height="5.561" rx="2" transform="translate(0.748 7.864) rotate(-45)" fill="#9dcaf2"/>
    </g>
    <circle id="Ellipse_474" data-name="Ellipse 474" cx="2.021" cy="2.021" r="2.021" transform="translate(996.407 2541.54)" fill="#f7fbff"/>
    <path id="Path_2780" data-name="Path 2780" d="M-15.344.192A4.846,4.846,0,0,0-11.1-2.064l-1.36-.72a3.383,3.383,0,0,1-2.88,1.552A3.863,3.863,0,0,1-18.133-2.46a3.863,3.863,0,0,1-1.031-2.872,3.854,3.854,0,0,1,1.028-2.875,3.854,3.854,0,0,1,2.8-1.225A3.383,3.383,0,0,1-12.46-7.88l1.36-.72a4.826,4.826,0,0,0-4.24-2.256,5.344,5.344,0,0,0-3.926,1.58,5.344,5.344,0,0,0-1.546,3.94,5.344,5.344,0,0,0,1.541,3.944A5.344,5.344,0,0,0-15.344.192ZM-9.536,0H-8.1V-5.376A2.73,2.73,0,0,1-6.064-6.5a2.266,2.266,0,0,1,.5.048V-7.9A3.283,3.283,0,0,0-8.1-6.544V-7.728H-9.54Zm4.928-3.872A3.865,3.865,0,0,0-3.5-.959,3.865,3.865,0,0,0-.608.192,4.347,4.347,0,0,0,2.5-.96L1.824-1.9A3.285,3.285,0,0,1-.464-.992a2.534,2.534,0,0,1-2.624-2.4H3.024v-.352c0-2.368-1.44-4.176-3.76-4.176a3.886,3.886,0,0,0-2.8,1.2A3.886,3.886,0,0,0-4.608-3.872ZM-.736-6.736a2.286,2.286,0,0,1,1.664.651,2.286,2.286,0,0,1,.688,1.649H-3.1a2.367,2.367,0,0,1,2.364-2.3ZM10.336,0h1.44V-10.672h-1.44v4.064A3.148,3.148,0,0,0,7.808-7.92c-2.016,0-3.456,1.584-3.456,4.064,0,2.528,1.44,4.048,3.456,4.048a3.2,3.2,0,0,0,2.528-1.3Zm0-2.208a2.657,2.657,0,0,1-2.144,1.12c-1.44,0-2.336-1.168-2.336-2.768,0-1.616.9-2.784,2.336-2.784A2.67,2.67,0,0,1,10.336-5.5Zm4.448-6.816a.915.915,0,0,0,.654-.262.915.915,0,0,0,.274-.65.929.929,0,0,0-.928-.928.939.939,0,0,0-.928.928.925.925,0,0,0,.928.912ZM14.08,0h1.44V-7.728H14.08Zm5.856.192a2.051,2.051,0,0,0,1.5-.5L21.068-1.4a1.108,1.108,0,0,1-.784.3c-.5,0-.752-.4-.752-.944V-6.464H21.1V-7.728H19.536V-9.84H18.1v2.112H16.82v1.264H18.1v4.752a1.681,1.681,0,0,0,.455,1.4,1.681,1.681,0,0,0,1.381.505ZM-34.816,20h1.76L-37.3,9.328h-2L-43.536,20h1.76l.864-2.208h5.232ZM-38.3,10.72l2.16,5.648h-4.3Zm7.936,12.224V18.88a3.083,3.083,0,0,0,2.528,1.312c2.016,0,3.44-1.536,3.44-4.064s-1.424-4.048-3.44-4.048a3.149,3.149,0,0,0-2.528,1.3v-1.1H-31.8V22.944Zm4.464-6.816c0,1.616-.88,2.784-2.32,2.784a2.689,2.689,0,0,1-2.144-1.136V14.5a2.647,2.647,0,0,1,2.144-1.136c1.436,0,2.32,1.164,2.32,2.764Zm4.768,6.816V18.88A3.083,3.083,0,0,0-18.6,20.192c2.016,0,3.44-1.536,3.44-4.064s-1.424-4.048-3.44-4.048a3.149,3.149,0,0,0-2.528,1.3v-1.1h-1.44V22.944Zm4.464-6.816c0,1.616-.88,2.784-2.32,2.784a2.689,2.689,0,0,1-2.144-1.136V14.5a2.647,2.647,0,0,1,2.144-1.136c1.436,0,2.316,1.164,2.316,2.764ZM-13.344,20h1.44V9.328h-1.44Zm4.432-9.024a.915.915,0,0,0,.654-.262.915.915,0,0,0,.274-.65.929.929,0,0,0-.928-.928.939.939,0,0,0-.928.928.925.925,0,0,0,.928.912ZM-9.616,20h1.44V12.272h-1.44Zm3.248-3.872a3.858,3.858,0,0,0,1.081,2.891,3.858,3.858,0,0,0,2.855,1.173,3.376,3.376,0,0,0,2.9-1.36l-.96-.88a2.2,2.2,0,0,1-1.872.96,2.529,2.529,0,0,1-1.866-.839,2.529,2.529,0,0,1-.634-1.945,2.515,2.515,0,0,1,.636-1.939,2.515,2.515,0,0,1,1.864-.829A2.158,2.158,0,0,1-.5,14.32l.96-.88a3.376,3.376,0,0,0-2.9-1.36,3.845,3.845,0,0,0-2.848,1.166,3.845,3.845,0,0,0-1.08,2.882ZM6.816,20h1.44V14.784c0-1.968-1.424-2.7-3.1-2.7a4.344,4.344,0,0,0-3.168,1.264l.624.992a3.162,3.162,0,0,1,2.32-1.024c1.1,0,1.888.576,1.888,1.536v1.28A3.223,3.223,0,0,0,4.288,15.1,2.494,2.494,0,0,0,1.6,17.632a2.568,2.568,0,0,0,2.688,2.56,3.313,3.313,0,0,0,2.528-1.04Zm0-1.7a2.448,2.448,0,0,1-1.984.88,1.552,1.552,0,1,1,0-3.072,2.448,2.448,0,0,1,1.984.88Zm5.872,1.888a2.051,2.051,0,0,0,1.5-.5L13.82,18.6a1.108,1.108,0,0,1-.784.3c-.5,0-.752-.4-.752-.944v-4.42h1.568V12.272H12.288V10.16h-1.44v2.112H9.568v1.264h1.28v4.752a1.681,1.681,0,0,0,1.84,1.9Zm3.472-9.216a.915.915,0,0,0,.928-.912.929.929,0,0,0-.928-.928.939.939,0,0,0-.928.928.925.925,0,0,0,.928.916ZM15.456,20H16.9V12.272H15.46Zm7.152.192a3.831,3.831,0,0,0,3.9-4.064,3.907,3.907,0,1,0-7.808,0,3.84,3.84,0,0,0,3.908,4.064Zm0-1.28a2.517,2.517,0,0,1-2.4-2.784,2.424,2.424,0,1,1,4.8,0,2.508,2.508,0,0,1-2.4,2.784ZM33.552,20h1.44V14.576a2.221,2.221,0,0,0-2.48-2.5,3.685,3.685,0,0,0-2.736,1.28V12.272h-1.44V20h1.44V14.48A2.761,2.761,0,0,1,31.9,13.36c.992,0,1.648.416,1.648,1.7Zm3.056-1.008a4.4,4.4,0,0,0,3.216,1.2c2.032,0,3.12-1.04,3.12-2.368,0-1.776-1.6-2.144-2.944-2.448-.96-.224-1.792-.448-1.792-1.12,0-.624.608-1.008,1.584-1.008a3.012,3.012,0,0,1,2.288.944l.64-1.008a4.136,4.136,0,0,0-2.944-1.1c-1.888,0-2.944,1.056-2.944,2.288,0,1.664,1.536,2.016,2.848,2.32.992.224,1.872.48,1.872,1.248,0,.656-.576,1.1-1.664,1.1a3.744,3.744,0,0,1-2.592-1.1Z" transform="translate(452 2605)" fill="#2974bf"/>
    <path id="Path_2781" data-name="Path 2781" d="M-53.048,0h3.808a5.189,5.189,0,0,0,3.95-1.437A5.189,5.189,0,0,0-43.7-5.328,5.211,5.211,0,0,0-45.29-9.22a5.211,5.211,0,0,0-3.946-1.452h-3.808Zm1.6-1.408V-9.264h2.208a3.689,3.689,0,0,1,2.832,1.091,3.689,3.689,0,0,1,1.056,2.845A3.719,3.719,0,0,1-46.425-2.5a3.719,3.719,0,0,1-2.815,1.1Zm13.072,1.6a3.831,3.831,0,0,0,2.84-1.178,3.831,3.831,0,0,0,1.06-2.886,3.827,3.827,0,0,0-1.065-2.877A3.827,3.827,0,0,0-38.376-7.92a3.836,3.836,0,0,0-2.832,1.174,3.836,3.836,0,0,0-1.068,2.874A3.84,3.84,0,0,0-41.213-.989,3.84,3.84,0,0,0-38.376.192Zm0-1.28a2.517,2.517,0,0,1-1.8-.871,2.517,2.517,0,0,1-.6-1.913,2.512,2.512,0,0,1,.6-1.9,2.512,2.512,0,0,1,1.8-.864,2.5,2.5,0,0,1,1.8.861,2.5,2.5,0,0,1,.6,1.907,2.508,2.508,0,0,1-.593,1.915,2.508,2.508,0,0,1-1.807.869Zm5.248-2.784A3.858,3.858,0,0,0-32.047-.981,3.858,3.858,0,0,0-29.192.192a3.376,3.376,0,0,0,2.9-1.36l-.96-.88a2.2,2.2,0,0,1-1.872.96,2.529,2.529,0,0,1-1.866-.839,2.529,2.529,0,0,1-.634-1.945,2.515,2.515,0,0,1,.636-1.939,2.515,2.515,0,0,1,1.864-.829,2.158,2.158,0,0,1,1.872.96l.96-.88a3.376,3.376,0,0,0-2.9-1.36,3.845,3.845,0,0,0-2.853,1.163,3.845,3.845,0,0,0-1.083,2.885ZM-19.5,0h1.44V-7.728H-19.5v5.552a2.793,2.793,0,0,1-2.14,1.088c-.992,0-1.632-.384-1.632-1.664V-7.728h-1.44v5.456A2.18,2.18,0,0,0-24.1-.425a2.18,2.18,0,0,0,1.847.617A3.818,3.818,0,0,0-19.5-1.056ZM-6.38,0h1.44V-5.584c0-1.552-.768-2.336-2.192-2.336a3.242,3.242,0,0,0-2.6,1.44,2,2,0,0,0-2.1-1.44,3.345,3.345,0,0,0-2.5,1.28V-7.728h-1.44V0h1.44V-5.52a2.525,2.525,0,0,1,1.9-1.12c.976,0,1.36.592,1.36,1.488V0h1.44V-5.536a2.488,2.488,0,0,1,1.92-1.1c.944,0,1.344.592,1.344,1.488Zm3.248-3.872A3.865,3.865,0,0,0-2.027-.959,3.865,3.865,0,0,0,.868.192,4.347,4.347,0,0,0,3.976-.96L3.3-1.9a3.285,3.285,0,0,1-2.288.912,2.534,2.534,0,0,1-2.624-2.4H4.5V-3.74C4.5-6.112,3.064-7.92.744-7.92a3.886,3.886,0,0,0-2.8,1.2A3.886,3.886,0,0,0-3.128-3.872ZM.744-6.736a2.286,2.286,0,0,1,1.668.651A2.286,2.286,0,0,1,3.1-4.432H-1.62a2.367,2.367,0,0,1,2.364-2.3ZM11.528,0h1.44V-5.424a2.221,2.221,0,0,0-.624-1.861,2.221,2.221,0,0,0-1.856-.639A3.685,3.685,0,0,0,7.752-6.64V-7.728H6.312V0h1.44V-5.52A2.761,2.761,0,0,1,9.88-6.64c.992,0,1.648.416,1.648,1.7Zm5.856.192a2.051,2.051,0,0,0,1.5-.5L18.52-1.392a1.108,1.108,0,0,1-.784.3c-.5,0-.752-.4-.752-.944V-6.464h1.568V-7.728H16.984V-9.84h-1.44v2.112h-1.28v1.264h1.28v4.752A1.681,1.681,0,0,0,16-.312a1.681,1.681,0,0,0,1.384.5ZM24.92,0h1.44V-5.216c0-1.968-1.424-2.7-3.1-2.7a4.344,4.344,0,0,0-3.168,1.264l.624.992a3.162,3.162,0,0,1,2.32-1.024c1.1,0,1.888.576,1.888,1.536v1.28A3.223,3.223,0,0,0,22.392-4.9a2.494,2.494,0,0,0-1.907.669A2.494,2.494,0,0,0,19.7-2.368a2.568,2.568,0,0,0,.8,1.856,2.568,2.568,0,0,0,1.894.7A3.313,3.313,0,0,0,24.92-.848Zm0-1.7a2.448,2.448,0,0,1-1.984.88A1.6,1.6,0,0,1,21.714-1.2a1.6,1.6,0,0,1-.554-1.153,1.6,1.6,0,0,1,.552-1.156,1.6,1.6,0,0,1,1.224-.38,2.448,2.448,0,0,1,1.984.88ZM30.792.192a2.051,2.051,0,0,0,1.5-.5L31.924-1.4a1.108,1.108,0,0,1-.784.3c-.5,0-.752-.4-.752-.944V-6.464H31.96V-7.728H30.392V-9.84h-1.44v2.112h-1.28v1.264h1.28v4.752a1.681,1.681,0,0,0,.456,1.4,1.681,1.681,0,0,0,1.384.5Zm3.472-9.216a.915.915,0,0,0,.654-.262.915.915,0,0,0,.274-.65.929.929,0,0,0-.928-.928.939.939,0,0,0-.928.928.925.925,0,0,0,.928.912ZM33.56,0H35V-7.728H33.56Zm7.152.192a3.831,3.831,0,0,0,2.84-1.178,3.831,3.831,0,0,0,1.06-2.886,3.827,3.827,0,0,0-1.065-2.877A3.827,3.827,0,0,0,40.712-7.92,3.836,3.836,0,0,0,37.88-6.746a3.836,3.836,0,0,0-1.068,2.874A3.84,3.84,0,0,0,37.875-.989,3.84,3.84,0,0,0,40.712.192Zm0-1.28a2.517,2.517,0,0,1-1.8-.871,2.517,2.517,0,0,1-.6-1.913,2.512,2.512,0,0,1,.6-1.9,2.512,2.512,0,0,1,1.8-.864,2.5,2.5,0,0,1,1.8.861,2.5,2.5,0,0,1,.6,1.907,2.508,2.508,0,0,1-.593,1.915,2.508,2.508,0,0,1-1.807.869ZM51.656,0H53.1V-5.424a2.221,2.221,0,0,0-.624-1.861,2.221,2.221,0,0,0-1.856-.639A3.685,3.685,0,0,0,47.88-6.64V-7.728H46.44V0h1.44V-5.52a2.761,2.761,0,0,1,2.128-1.12c.992,0,1.648.416,1.648,1.7Z" transform="translate(589 2605)" fill="#2974bf"/>
    <path id="Path_2782" data-name="Path 2782" d="M-36.824,0h1.6V-4.112h2.9A3.192,3.192,0,0,0-29.893-5a3.192,3.192,0,0,0,.977-2.4,3.183,3.183,0,0,0-.974-2.4,3.183,3.183,0,0,0-2.434-.882h-4.5Zm6.256-7.392a1.832,1.832,0,0,1-.569,1.372,1.832,1.832,0,0,1-1.4.5h-2.688V-9.264h2.688a1.832,1.832,0,0,1,1.4.5,1.832,1.832,0,0,1,.569,1.372ZM-22.856,0h1.44V-5.216c0-1.968-1.424-2.7-3.1-2.7a4.344,4.344,0,0,0-3.168,1.264l.624.992a3.162,3.162,0,0,1,2.32-1.024c1.1,0,1.888.576,1.888,1.536v1.28A3.223,3.223,0,0,0-25.384-4.9a2.494,2.494,0,0,0-1.9.67,2.494,2.494,0,0,0-.785,1.858,2.568,2.568,0,0,0,.8,1.857,2.568,2.568,0,0,0,1.892.707,3.313,3.313,0,0,0,2.528-1.04Zm0-1.7a2.448,2.448,0,0,1-1.984.88,1.6,1.6,0,0,1-1.224-.38,1.6,1.6,0,0,1-.552-1.156,1.6,1.6,0,0,1,.554-1.153,1.6,1.6,0,0,1,1.222-.379,2.448,2.448,0,0,1,1.984.88Zm3.584,3.424-.224,1.3a4.162,4.162,0,0,0,.9.112,2.442,2.442,0,0,0,2.464-1.664l3.808-9.2H-13.88L-16.3-1.664l-2.416-6.064h-1.536L-17.064.08l-.448,1.02a1.068,1.068,0,0,1-1.12.752,1.756,1.756,0,0,1-.64-.124ZM-1.768,0h1.44V-5.584C-.328-7.136-1.1-7.92-2.52-7.92A3.242,3.242,0,0,0-5.128-6.48a2,2,0,0,0-2.1-1.44,3.345,3.345,0,0,0-2.5,1.28V-7.728h-1.44V0h1.44V-5.52a2.525,2.525,0,0,1,1.9-1.12c.976,0,1.36.592,1.36,1.488V0h1.44V-5.536a2.488,2.488,0,0,1,1.92-1.1c.944,0,1.344.592,1.344,1.488ZM1.48-3.872A3.865,3.865,0,0,0,2.585-.959,3.865,3.865,0,0,0,5.48.192,4.347,4.347,0,0,0,8.584-.96L7.912-1.9a3.285,3.285,0,0,1-2.288.912A2.534,2.534,0,0,1,3-3.392H9.112v-.352c0-2.368-1.44-4.176-3.76-4.176a3.886,3.886,0,0,0-2.8,1.2A3.886,3.886,0,0,0,1.48-3.872ZM5.352-6.736a2.286,2.286,0,0,1,1.663.653A2.286,2.286,0,0,1,7.7-4.432H2.984a2.367,2.367,0,0,1,2.368-2.3ZM16.136,0h1.44V-5.424a2.221,2.221,0,0,0-.624-1.861A2.221,2.221,0,0,0,15.1-7.924,3.685,3.685,0,0,0,12.36-6.64V-7.728H10.92V0h1.44V-5.52a2.761,2.761,0,0,1,2.128-1.12c.992,0,1.648.416,1.648,1.7Zm5.856.192a2.051,2.051,0,0,0,1.5-.5L23.124-1.4a1.108,1.108,0,0,1-.784.3c-.5,0-.752-.4-.752-.944V-6.464H23.16V-7.728H21.592V-9.84h-1.44v2.112h-1.28v1.264h1.28v4.752a1.681,1.681,0,0,0,.456,1.4,1.681,1.681,0,0,0,1.384.5ZM35.576-2.064a14.348,14.348,0,0,0,1.456-2.688l-1.2-.544a9.937,9.937,0,0,1-1.1,2.336c-.384-.432-.768-.864-1.168-1.328-.32-.384-.736-.88-1.136-1.424,1.344-.672,2.688-1.36,2.688-2.976,0-1.36-1.1-2.144-2.528-2.144a2.594,2.594,0,0,0-1.925.657A2.594,2.594,0,0,0,29.8-8.332a5.05,5.05,0,0,0,.784,2.368c-1.232.64-2.336,1.488-2.336,3.152,0,2,1.5,3.008,3.376,3.008a4.372,4.372,0,0,0,3.04-1.216c.4.4.768.768,1.056,1.024h1.92C36.872-.736,36.216-1.392,35.576-2.064Zm-4.3-6.24a1.372,1.372,0,0,1,.378-1.016,1.372,1.372,0,0,1,1-.424,1.071,1.071,0,0,1,.84.293,1.071,1.071,0,0,1,.328.827c0,.976-.9,1.5-1.952,2.032a3.6,3.6,0,0,1-.6-1.708Zm.512,7.328a1.91,1.91,0,0,1-1.425-.541,1.91,1.91,0,0,1-.575-1.411A2.473,2.473,0,0,1,31.176-5.04c.416.576.848,1.12,1.264,1.616.288.352.832.944,1.392,1.536a2.929,2.929,0,0,1-2.048.912ZM-42.048,22h1.856l-2.736-4.272a2.977,2.977,0,0,0,2.656-3.12,3.181,3.181,0,0,0-.979-2.406,3.181,3.181,0,0,0-2.445-.874h-4.5V22h1.6V17.888h2Zm.128-7.392A1.846,1.846,0,0,1-42.5,15.98a1.846,1.846,0,0,1-1.4.5h-2.688V12.736H-43.9a1.846,1.846,0,0,1,1.4.5,1.846,1.846,0,0,1,.578,1.372Zm2.624,3.52a3.865,3.865,0,0,0,1.105,2.913A3.865,3.865,0,0,0-35.3,22.192a4.347,4.347,0,0,0,3.1-1.152l-.672-.944a3.286,3.286,0,0,1-2.288.912,2.534,2.534,0,0,1-2.624-2.4h6.112v-.352c0-2.368-1.44-4.176-3.76-4.176a3.886,3.886,0,0,0-2.8,1.2A3.886,3.886,0,0,0-39.3,18.128Zm3.872-2.864a2.286,2.286,0,0,1,1.664.651,2.286,2.286,0,0,1,.688,1.649h-4.72a2.367,2.367,0,0,1,2.368-2.3Zm5.088,2.864a3.858,3.858,0,0,0,1.081,2.891A3.858,3.858,0,0,0-26.4,22.192a3.376,3.376,0,0,0,2.9-1.36l-.96-.88a2.2,2.2,0,0,1-1.872.96,2.529,2.529,0,0,1-1.866-.839,2.529,2.529,0,0,1-.634-1.945,2.515,2.515,0,0,1,.636-1.939,2.515,2.515,0,0,1,1.864-.829,2.158,2.158,0,0,1,1.872.96l.96-.88a3.376,3.376,0,0,0-2.9-1.36,3.845,3.845,0,0,0-2.853,1.163,3.845,3.845,0,0,0-1.083,2.885Zm11.84,4.064a3.831,3.831,0,0,0,2.84-1.178,3.831,3.831,0,0,0,1.06-2.886,3.827,3.827,0,0,0-1.065-2.877A3.827,3.827,0,0,0-18.5,14.08a3.836,3.836,0,0,0-2.832,1.174A3.836,3.836,0,0,0-22.4,18.128a3.84,3.84,0,0,0,1.061,2.882A3.84,3.84,0,0,0-18.5,22.192Zm0-1.28a2.517,2.517,0,0,1-1.8-.871,2.517,2.517,0,0,1-.6-1.913,2.512,2.512,0,0,1,.6-1.9,2.512,2.512,0,0,1,1.8-.864,2.5,2.5,0,0,1,1.8.861,2.5,2.5,0,0,1,.6,1.907,2.508,2.508,0,0,1-.594,1.917,2.508,2.508,0,0,1-1.81.867ZM-7.552,22h1.44V16.576a2.221,2.221,0,0,0-.624-1.861,2.221,2.221,0,0,0-1.856-.639,3.685,3.685,0,0,0-2.736,1.28V14.272h-1.44V22h1.44V16.48A2.761,2.761,0,0,1-9.2,15.36c.992,0,1.648.416,1.648,1.7ZM-4.3,18.128a3.858,3.858,0,0,0,1.08,2.889A3.858,3.858,0,0,0-.368,22.192a3.376,3.376,0,0,0,2.9-1.36l-.96-.88a2.2,2.2,0,0,1-1.872.96,2.529,2.529,0,0,1-1.866-.839A2.529,2.529,0,0,1-2.8,18.128a2.515,2.515,0,0,1,.636-1.939A2.515,2.515,0,0,1-.3,15.36a2.158,2.158,0,0,1,1.872.96l.96-.88a3.376,3.376,0,0,0-2.9-1.36,3.845,3.845,0,0,0-2.85,1.165A3.845,3.845,0,0,0-4.3,18.128Zm9.12-5.152a.915.915,0,0,0,.928-.912.929.929,0,0,0-.928-.928.939.939,0,0,0-.928.928.925.925,0,0,0,.924.912ZM4.112,22h1.44V14.272H4.112ZM7.84,22H9.28V11.328H7.84Zm4.432-9.024a.915.915,0,0,0,.928-.912.929.929,0,0,0-.928-.928.939.939,0,0,0-.928.928A.925.925,0,0,0,12.272,12.976ZM11.568,22h1.44V14.272h-1.44Zm8.5,0H21.5V16.784c0-1.968-1.424-2.7-3.1-2.7a4.344,4.344,0,0,0-3.168,1.264l.624.992a3.162,3.162,0,0,1,2.32-1.024c1.1,0,1.888.576,1.888,1.536v1.28A3.223,3.223,0,0,0,17.536,17.1a2.494,2.494,0,0,0-2.688,2.528,2.568,2.568,0,0,0,2.688,2.56,3.313,3.313,0,0,0,2.528-1.04Zm0-1.7a2.448,2.448,0,0,1-1.984.88,1.552,1.552,0,1,1,0-3.072,2.448,2.448,0,0,1,1.984.88Zm5.872,1.888a2.051,2.051,0,0,0,1.5-.5L27.072,20.6a1.108,1.108,0,0,1-.784.3c-.5,0-.752-.4-.752-.944v-4.42H27.1V14.272H25.536V12.16H24.1v2.112H22.82v1.264H24.1v4.752a1.681,1.681,0,0,0,1.836,1.9Zm3.472-9.216a.915.915,0,0,0,.928-.912.929.929,0,0,0-.928-.928.939.939,0,0,0-.928.928.925.925,0,0,0,.924.916ZM28.7,22h1.44V14.272H28.7Zm7.152.192a3.831,3.831,0,0,0,3.9-4.064,3.907,3.907,0,1,0-7.808,0,3.84,3.84,0,0,0,3.912,4.064Zm0-1.28a2.517,2.517,0,0,1-2.4-2.784,2.424,2.424,0,1,1,4.8,0,2.508,2.508,0,0,1-2.4,2.784ZM46.8,22h1.44V16.576a2.221,2.221,0,0,0-2.48-2.5,3.685,3.685,0,0,0-2.736,1.28V14.272h-1.44V22h1.44V16.48a2.761,2.761,0,0,1,2.128-1.12c.992,0,1.648.416,1.648,1.7Z" transform="translate(725 2605)" fill="#2974bf"/>
    <path id="Path_2783" data-name="Path 2783" d="M-23.12,0h1.76L-25.6-10.672h-2L-31.84,0h1.76l.864-2.208h5.232Zm-3.488-9.28,2.16,5.648h-4.3ZM-14.9,0h1.44V-5.424a2.221,2.221,0,0,0-.624-1.861,2.221,2.221,0,0,0-1.856-.639,3.685,3.685,0,0,0-2.736,1.28V-7.728h-1.44V0h1.44V-5.52a2.761,2.761,0,0,1,2.128-1.12c.992,0,1.648.416,1.648,1.7Zm8.5,0h1.44V-5.216c0-1.968-1.424-2.7-3.1-2.7a4.344,4.344,0,0,0-3.168,1.264l.624.992a3.162,3.162,0,0,1,2.32-1.024c1.1,0,1.888.576,1.888,1.536v1.28A3.223,3.223,0,0,0-8.928-4.9a2.494,2.494,0,0,0-1.9.67,2.494,2.494,0,0,0-.785,1.858,2.568,2.568,0,0,0,.8,1.857A2.568,2.568,0,0,0-8.928.192,3.313,3.313,0,0,0-6.4-.848Zm0-1.7a2.448,2.448,0,0,1-1.984.88A1.6,1.6,0,0,1-9.606-1.2a1.6,1.6,0,0,1-.554-1.153,1.6,1.6,0,0,1,.552-1.156,1.6,1.6,0,0,1,1.224-.38,2.448,2.448,0,0,1,1.984.88ZM-2.656,0h1.44V-10.672h-1.44ZM.912,1.728l-.224,1.3a4.162,4.162,0,0,0,.9.112,2.442,2.442,0,0,0,2.46-1.668l3.808-9.2H6.3L3.888-1.664,1.472-7.728H-.064L3.12.08,2.672,1.1a1.068,1.068,0,0,1-1.12.752,1.756,1.756,0,0,1-.64-.124ZM11.152.192a2.051,2.051,0,0,0,1.5-.5L12.284-1.4a1.108,1.108,0,0,1-.784.3c-.5,0-.752-.4-.752-.944V-6.464H12.32V-7.728H10.752V-9.84H9.312v2.112H8.032v1.264h1.28v4.752a1.681,1.681,0,0,0,.456,1.4,1.681,1.681,0,0,0,1.384.5Zm3.472-9.216a.915.915,0,0,0,.654-.262.915.915,0,0,0,.274-.65.929.929,0,0,0-.928-.928.939.939,0,0,0-.928.928.925.925,0,0,0,.928.912ZM13.92,0h1.44V-7.728H13.92Zm3.248-3.872a3.858,3.858,0,0,0,1.08,2.889A3.858,3.858,0,0,0,21.1.192,3.376,3.376,0,0,0,24-1.168l-.96-.88a2.2,2.2,0,0,1-1.872.96A2.529,2.529,0,0,1,19.3-1.927a2.529,2.529,0,0,1-.634-1.945A2.515,2.515,0,0,1,19.3-5.811a2.515,2.515,0,0,1,1.864-.829,2.158,2.158,0,0,1,1.872.96L24-6.56a3.376,3.376,0,0,0-2.9-1.36,3.845,3.845,0,0,0-2.85,1.165,3.845,3.845,0,0,0-1.082,2.883Zm7.744,2.864a4.4,4.4,0,0,0,3.216,1.2c2.032,0,3.12-1.04,3.12-2.368,0-1.776-1.6-2.144-2.944-2.448-.96-.224-1.792-.448-1.792-1.12,0-.624.608-1.008,1.584-1.008a3.012,3.012,0,0,1,2.288.944l.64-1.008a4.136,4.136,0,0,0-2.944-1.1c-1.888,0-2.944,1.056-2.944,2.288,0,1.664,1.536,2.016,2.848,2.32.992.224,1.872.48,1.872,1.248,0,.656-.576,1.1-1.664,1.1A3.744,3.744,0,0,1,25.6-2.06Z" transform="translate(862 2605)" fill="#2974bf"/>
    <path id="Path_2784" data-name="Path 2784" d="M-44.728,0h1.6V-10.672h-2.288l-3.1,7.664-3.1-7.664H-53.9V0h1.6V-8.48L-48.856,0h.672l3.456-8.48Zm8.7,0h1.44V-5.216c0-1.968-1.424-2.7-3.1-2.7a4.344,4.344,0,0,0-3.168,1.264l.624.992a3.162,3.162,0,0,1,2.32-1.024c1.1,0,1.888.576,1.888,1.536v1.28A3.223,3.223,0,0,0-38.552-4.9a2.494,2.494,0,0,0-1.9.671,2.494,2.494,0,0,0-.784,1.861,2.568,2.568,0,0,0,.8,1.854,2.568,2.568,0,0,0,1.891.706,3.313,3.313,0,0,0,2.528-1.04Zm0-1.7a2.448,2.448,0,0,1-1.984.88,1.6,1.6,0,0,1-1.224-.38,1.6,1.6,0,0,1-.552-1.156,1.6,1.6,0,0,1,.552-1.156,1.6,1.6,0,0,1,1.224-.38,2.448,2.448,0,0,1,1.984.88Zm8.96,1.7h1.44V-5.424a2.221,2.221,0,0,0-.624-1.861,2.221,2.221,0,0,0-1.856-.639A3.685,3.685,0,0,0-30.84-6.64V-7.728h-1.44V0h1.44V-5.52a2.761,2.761,0,0,1,2.128-1.12c.992,0,1.648.416,1.648,1.7Zm8.5,0h1.44V-5.216c0-1.968-1.424-2.7-3.1-2.7A4.344,4.344,0,0,0-23.4-6.656l.624.992a3.162,3.162,0,0,1,2.32-1.024c1.1,0,1.888.576,1.888,1.536v1.28A3.223,3.223,0,0,0-21.1-4.9a2.494,2.494,0,0,0-1.9.67,2.494,2.494,0,0,0-.785,1.858,2.568,2.568,0,0,0,.8,1.857A2.568,2.568,0,0,0-21.1.192a3.313,3.313,0,0,0,2.528-1.04Zm0-1.7a2.448,2.448,0,0,1-1.984.88,1.6,1.6,0,0,1-1.224-.38,1.6,1.6,0,0,1-.552-1.156,1.6,1.6,0,0,1,.552-1.156,1.6,1.6,0,0,1,1.224-.38,2.448,2.448,0,0,1,1.984.88Zm3.68,3.68A4.154,4.154,0,0,0-11.72,3.136c1.9,0,3.84-.784,3.84-3.44V-7.728H-9.32v1.12A3.155,3.155,0,0,0-11.864-7.92c-2,0-3.44,1.5-3.44,3.984,0,2.528,1.44,4,3.44,4A3.257,3.257,0,0,0-9.32-1.264V-.256A2.135,2.135,0,0,1-10.008,1.4a2.135,2.135,0,0,1-1.712.547A3.015,3.015,0,0,1-14.2.928ZM-9.32-2.368a2.708,2.708,0,0,1-2.144,1.152c-1.44,0-2.336-1.12-2.336-2.72,0-1.584.9-2.7,2.336-2.7A2.694,2.694,0,0,1-9.32-5.5Zm3.248-1.5A3.865,3.865,0,0,0-4.967-.955,3.865,3.865,0,0,0-2.072.2,4.347,4.347,0,0,0,1.032-.96L.36-1.9a3.285,3.285,0,0,1-2.288.912,2.534,2.534,0,0,1-2.624-2.4H1.56V-3.74C1.56-6.112.12-7.92-2.2-7.92A3.886,3.886,0,0,0-5-6.72,3.886,3.886,0,0,0-6.072-3.872ZM-2.2-6.736a2.286,2.286,0,0,1,1.664.651A2.286,2.286,0,0,1,.152-4.436h-4.72A2.367,2.367,0,0,1-2.2-6.736ZM7.08-5.328A5.248,5.248,0,0,0,8.561-1.393,5.248,5.248,0,0,0,12.456.192a5.248,5.248,0,0,0,3.895-1.585,5.248,5.248,0,0,0,1.481-3.935,5.248,5.248,0,0,0-1.481-3.935,5.248,5.248,0,0,0-3.895-1.585A5.248,5.248,0,0,0,8.561-9.263,5.248,5.248,0,0,0,7.08-5.328Zm9.1,0c0,2.336-1.472,4.1-3.728,4.1-2.288,0-3.728-1.76-3.728-4.1s1.44-4.1,3.728-4.1c2.26,0,3.732,1.748,3.732,4.1ZM19.736,0h1.44V-5.376A2.73,2.73,0,0,1,23.208-6.5a2.266,2.266,0,0,1,.5.048V-7.9A3.283,3.283,0,0,0,21.18-6.54V-7.728H19.74ZM30.648,0h1.44V-10.672h-1.44v4.064A3.148,3.148,0,0,0,28.12-7.92c-2.016,0-3.456,1.584-3.456,4.064,0,2.528,1.44,4.048,3.456,4.048a3.2,3.2,0,0,0,2.528-1.3Zm0-2.208A2.657,2.657,0,0,1,28.5-1.088c-1.44,0-2.336-1.168-2.336-2.768,0-1.616.9-2.784,2.336-2.784A2.67,2.67,0,0,1,30.648-5.5Zm3.264-1.664A3.865,3.865,0,0,0,35.017-.959,3.865,3.865,0,0,0,37.912.192a4.347,4.347,0,0,0,3.1-1.152l-.668-.94a3.285,3.285,0,0,1-2.288.912,2.534,2.534,0,0,1-2.624-2.4h6.112V-3.74c0-2.368-1.44-4.176-3.76-4.176a3.886,3.886,0,0,0-2.8,1.2,3.886,3.886,0,0,0-1.076,2.845Zm3.872-2.864a2.286,2.286,0,0,1,1.664.651,2.286,2.286,0,0,1,.688,1.649h-4.72A2.367,2.367,0,0,1,37.784-6.736ZM43.352,0h1.44V-5.376A2.73,2.73,0,0,1,46.824-6.5a2.266,2.266,0,0,1,.5.048V-7.9A3.283,3.283,0,0,0,44.8-6.54V-7.728h-1.44Zm4.736-1.008A4.4,4.4,0,0,0,51.3.192c2.032,0,3.12-1.04,3.12-2.368,0-1.776-1.6-2.144-2.944-2.448-.96-.224-1.792-.448-1.792-1.12,0-.624.608-1.008,1.584-1.008a3.012,3.012,0,0,1,2.288.944l.64-1.008a4.136,4.136,0,0,0-2.944-1.1c-1.888,0-2.944,1.056-2.944,2.288,0,1.664,1.536,2.016,2.848,2.32.992.224,1.872.48,1.872,1.248,0,.656-.576,1.1-1.664,1.1a3.744,3.744,0,0,1-2.592-1.1Z" transform="translate(999 2605)" fill="#2974bf"/>
  </g>
</svg>
